<svg width="716" height="441" viewBox="0 0 716 441" fill="none" xmlns="http://www.w3.org/2000/svg">
<rect width="716" height="441" fill="white"/>
<rect x="24.5" y="68.5" width="435" height="289" rx="4.5" stroke="black"/>
<path d="M255.25 203.103C258.25 204.835 258.25 209.165 255.25 210.897L225.25 228.218C222.25 229.95 218.5 227.785 218.5 224.321V189.679C218.5 186.215 222.25 184.05 225.25 185.782L255.25 203.103Z" stroke="black"/>
<path d="M424.972 326.859C425.242 326.803 425.416 326.538 425.359 326.268L424.442 321.862C424.385 321.592 424.121 321.418 423.85 321.475C423.58 321.531 423.406 321.796 423.463 322.066L424.278 325.982L420.362 326.798C420.092 326.854 419.918 327.119 419.975 327.389C420.031 327.659 420.296 327.833 420.566 327.777L424.972 326.859ZM405.719 314.418L424.596 326.788L425.144 325.951L406.267 313.582L405.719 314.418Z" fill="black"/>
<rect x="425.5" y="326.5" width="19" height="14" rx="4.5" fill="white" stroke="black"/>
<rect x="403.5" y="311.5" width="44" height="32" rx="4.5" stroke="black"/>
<line x1="-4.37114e-08" y1="391.5" x2="716" y2="391.5" stroke="black"/>
<rect x="444.5" y="24.5" width="248" height="180" rx="4.5" fill="white" stroke="black"/>
<path d="M659.5 38.0154C659.492 37.7394 659.709 37.5088 659.985 37.5002L664.482 37.3613C664.758 37.3527 664.989 37.5696 664.998 37.8456C665.006 38.1216 664.789 38.3523 664.513 38.3608L660.515 38.4843L660.639 42.4824C660.647 42.7584 660.43 42.9891 660.154 42.9976C659.878 43.0061 659.648 42.7893 659.639 42.5133L659.5 38.0154ZM669.314 47.4424L659.658 38.3643L660.342 37.6357L669.999 46.7138L669.314 47.4424Z" fill="black"/>
<rect x="655.5" y="33.5" width="29" height="21" rx="4.5" stroke="black"/>
<rect x="670.5" y="47.5" width="18" height="12" rx="4.5" fill="white" stroke="black"/>
<line x1="454.903" y1="46.3899" x2="464.39" y2="36.903" stroke="black"/>
<line x1="455.61" y1="36.903" x2="465.097" y2="46.3899" stroke="black"/>
<path d="M591 172.521V160V154.149C591 153.299 591.994 152.837 592.644 153.385L598.856 158.615C599.506 159.163 600.5 158.701 600.5 157.851V154.578C600.5 153.665 601.623 153.23 602.238 153.904L610.371 162.811C610.725 163.199 610.718 163.795 610.355 164.175L602.223 172.695C601.6 173.347 600.5 172.906 600.5 172.004V169.479C600.5 168.659 599.567 168.187 598.907 168.674L592.593 173.326C591.933 173.813 591 173.341 591 172.521Z" stroke="black"/>
<path d="M546 153.979V166.5V172.351C546 173.201 545.006 173.663 544.356 173.115L538.144 167.885C537.494 167.337 536.5 167.799 536.5 168.649V171.922C536.5 172.835 535.377 173.27 534.762 172.596L526.629 163.689C526.275 163.301 526.282 162.705 526.645 162.325L534.777 153.805C535.4 153.153 536.5 153.594 536.5 154.496V157.021C536.5 157.841 537.433 158.313 538.093 157.826L544.407 153.174C545.067 152.687 546 153.159 546 153.979Z" stroke="black"/>
<rect x="560.5" y="152.5" width="5" height="21" rx="2.5" fill="white" stroke="black"/>
<rect x="571.5" y="152.5" width="5" height="21" rx="2.5" fill="white" stroke="black"/>
<path d="M560.929 192.08C560.684 192.08 560.473 191.992 560.298 191.816C560.122 191.64 560.034 191.43 560.034 191.185C560.034 190.939 560.122 190.729 560.298 190.553C560.473 190.378 560.684 190.29 560.929 190.29C561.174 190.29 561.385 190.378 561.56 190.553C561.736 190.729 561.824 190.939 561.824 191.185C561.824 191.347 561.782 191.496 561.7 191.632C561.62 191.768 561.512 191.877 561.376 191.96C561.244 192.04 561.095 192.08 560.929 192.08ZM568.722 192.08C568.477 192.08 568.266 191.992 568.091 191.816C567.915 191.64 567.827 191.43 567.827 191.185C567.827 190.939 567.915 190.729 568.091 190.553C568.266 190.378 568.477 190.29 568.722 190.29C568.967 190.29 569.178 190.378 569.353 190.553C569.529 190.729 569.617 190.939 569.617 191.185C569.617 191.347 569.575 191.496 569.493 191.632C569.413 191.768 569.305 191.877 569.169 191.96C569.037 192.04 568.888 192.08 568.722 192.08ZM576.515 192.08C576.27 192.08 576.059 191.992 575.884 191.816C575.708 191.64 575.62 191.43 575.62 191.185C575.62 190.939 575.708 190.729 575.884 190.553C576.059 190.378 576.27 190.29 576.515 190.29C576.76 190.29 576.971 190.378 577.146 190.553C577.322 190.729 577.41 190.939 577.41 191.185C577.41 191.347 577.368 191.496 577.286 191.632C577.206 191.768 577.098 191.877 576.962 191.96C576.83 192.04 576.681 192.08 576.515 192.08Z" fill="black"/>
<line x1="445" y1="141.5" x2="693" y2="141.5" stroke="black"/>
<rect x="504.5" y="104.5" width="128" height="20" rx="4.5" stroke="black"/>
<line x1="521" y1="113.5" x2="536" y2="113.5" stroke="black"/>
<line x1="544" y1="113.5" x2="565" y2="113.5" stroke="black"/>
<line x1="572" y1="113.5" x2="579" y2="113.5" stroke="black"/>
<path d="M589 113.5H603" stroke="black"/>
<line x1="612" y1="113.5" x2="619" y2="113.5" stroke="black"/>
<circle cx="252.5" cy="416.5" r="15" stroke="black"/>
<circle cx="322.5" cy="416.5" r="15" stroke="black"/>
<circle cx="392.5" cy="416.5" r="15" stroke="black"/>
<circle cx="462.5" cy="416.5" r="15" stroke="black"/>
<path d="M460.734 359.586L457.141 367.49C456.754 368.341 455.515 368.243 455.267 367.342L448.733 343.657C448.484 342.756 449.498 342.037 450.266 342.569L471.368 357.178C472.174 357.736 471.779 359 470.799 359H461.644C461.252 359 460.896 359.229 460.734 359.586Z" fill="black" stroke="black"/>
<path d="M398.03 56C398.03 56 396.03 29.5 424.53 29.5M424.53 29.5L418.53 24M424.53 29.5L418.53 36" stroke="black"/>
<path d="M473.265 249.235C473.265 249.235 499.765 251.235 499.765 222.735M499.765 222.735L505.265 228.735M499.765 222.735L493.265 228.735" stroke="black"/>
</svg>
