<svg width="716" height="441" viewBox="0 0 716 441" fill="none" xmlns="http://www.w3.org/2000/svg">
<rect width="716" height="441" fill="white"/>
<rect x="24.5" y="68.5" width="435" height="289" rx="4.5" stroke="black"/>
<path d="M255.25 203.103C258.25 204.835 258.25 209.165 255.25 210.897L225.25 228.218C222.25 229.95 218.5 227.785 218.5 224.321V189.679C218.5 186.215 222.25 184.05 225.25 185.782L255.25 203.103Z" stroke="black"/>
<path d="M424.972 326.859C425.242 326.803 425.416 326.538 425.359 326.268L424.442 321.862C424.385 321.592 424.121 321.418 423.85 321.475C423.58 321.531 423.406 321.796 423.463 322.066L424.278 325.982L420.362 326.798C420.092 326.854 419.918 327.119 419.975 327.389C420.031 327.659 420.296 327.833 420.566 327.777L424.972 326.859ZM405.719 314.418L424.596 326.788L425.144 325.951L406.267 313.582L405.719 314.418Z" fill="black"/>
<rect x="425.5" y="326.5" width="19" height="14" rx="4.5" fill="white" stroke="black"/>
<rect x="403.5" y="311.5" width="44" height="32" rx="4.5" stroke="black"/>
<line x1="-4.37114e-08" y1="391.5" x2="716" y2="391.5" stroke="black"/>
<rect x="444.5" y="24.5" width="248" height="256" rx="4.5" fill="white" stroke="black"/>
<path d="M660.182 37.0154C660.174 36.7394 660.391 36.5088 660.667 36.5002L665.164 36.3613C665.44 36.3527 665.671 36.5696 665.68 36.8456C665.688 37.1216 665.471 37.3523 665.195 37.3608L661.197 37.4843L661.321 41.4824C661.329 41.7584 661.112 41.9891 660.836 41.9976C660.56 42.0061 660.33 41.7893 660.321 41.5133L660.182 37.0154ZM669.997 46.4424L660.34 37.3643L661.025 36.6357L670.681 45.7138L669.997 46.4424Z" fill="black"/>
<rect x="655.5" y="33.5" width="29" height="21" rx="4.5" stroke="black"/>
<rect x="670.5" y="47.5" width="18" height="12" rx="4.5" fill="white" stroke="black"/>
<line x1="454.903" y1="46.3899" x2="464.39" y2="36.903" stroke="black"/>
<line x1="455.61" y1="36.903" x2="465.097" y2="46.3899" stroke="black"/>
<line x1="565.646" y1="271.374" x2="571.614" y2="265.406" stroke="black"/>
<line x1="571.386" y1="265.406" x2="577.354" y2="271.374" stroke="black"/>
<path d="M591 172.521V160V154.149C591 153.299 591.994 152.837 592.644 153.385L598.856 158.615C599.506 159.163 600.5 158.701 600.5 157.851V154.578C600.5 153.665 601.623 153.23 602.238 153.904L610.371 162.811C610.725 163.199 610.718 163.795 610.355 164.175L602.223 172.695C601.6 173.347 600.5 172.906 600.5 172.004V169.479C600.5 168.659 599.567 168.187 598.907 168.674L592.593 173.326C591.933 173.813 591 173.341 591 172.521Z" stroke="black"/>
<path d="M546 153.979V166.5V172.351C546 173.201 545.006 173.663 544.356 173.115L538.144 167.885C537.494 167.337 536.5 167.799 536.5 168.649V171.922C536.5 172.835 535.377 173.27 534.762 172.596L526.629 163.689C526.275 163.301 526.282 162.705 526.645 162.325L534.777 153.805C535.4 153.153 536.5 153.594 536.5 154.496V157.021C536.5 157.841 537.433 158.313 538.093 157.826L544.407 153.174C545.067 152.687 546 153.159 546 153.979Z" stroke="black"/>
<rect x="560.5" y="152.5" width="5" height="21" rx="2.5" fill="white" stroke="black"/>
<rect x="571.5" y="152.5" width="5" height="21" rx="2.5" fill="white" stroke="black"/>
<line x1="445" y1="141.5" x2="693" y2="141.5" stroke="black"/>
<rect x="504.5" y="104.5" width="128" height="20" rx="4.5" stroke="black"/>
<line x1="521" y1="114.5" x2="617" y2="114.5" stroke="black"/>
<rect x="494.5" y="193.5" width="89" height="23" rx="4.5" fill="white" stroke="black"/>
<rect x="494.5" y="221.5" width="76" height="10" rx="4.5" fill="white" stroke="black"/>
<rect x="494.5" y="240.5" width="166" height="12" rx="4.5" fill="white" stroke="black"/>
<path d="M475.933 255.25C475.741 255.583 475.259 255.583 475.067 255.25L472.902 251.5C472.709 251.167 472.95 250.75 473.335 250.75H477.665C478.05 250.75 478.291 251.167 478.098 251.5L475.933 255.25Z" fill="white" stroke="black"/>
<rect x="469.5" y="240.5" width="18" height="12" rx="4.5" fill="white" stroke="black"/>
<path d="M476.366 253.5C475.981 254.167 475.019 254.167 474.634 253.5L472.469 249.75C472.084 249.083 472.565 248.25 473.335 248.25H477.665C478.435 248.25 478.916 249.083 478.531 249.75L476.366 253.5Z" fill="white"/>
<path d="M474.929 247.08C474.684 247.08 474.473 246.992 474.298 246.816C474.122 246.64 474.034 246.43 474.034 246.185C474.034 245.939 474.122 245.729 474.298 245.553C474.473 245.378 474.684 245.29 474.929 245.29C475.174 245.29 475.385 245.378 475.56 245.553C475.736 245.729 475.824 245.939 475.824 246.185C475.824 246.347 475.782 246.496 475.7 246.632C475.62 246.768 475.512 246.877 475.376 246.96C475.244 247.04 475.095 247.08 474.929 247.08ZM478.747 247.08C478.502 247.08 478.291 246.992 478.116 246.816C477.94 246.64 477.852 246.43 477.852 246.185C477.852 245.939 477.94 245.729 478.116 245.553C478.291 245.378 478.502 245.29 478.747 245.29C478.992 245.29 479.203 245.378 479.379 245.553C479.554 245.729 479.642 245.939 479.642 246.185C479.642 246.347 479.601 246.496 479.518 246.632C479.438 246.768 479.33 246.877 479.195 246.96C479.062 247.04 478.913 247.08 478.747 247.08ZM482.565 247.08C482.32 247.08 482.11 246.992 481.934 246.816C481.758 246.64 481.67 246.43 481.67 246.185C481.67 245.939 481.758 245.729 481.934 245.553C482.11 245.378 482.32 245.29 482.565 245.29C482.811 245.29 483.021 245.378 483.197 245.553C483.372 245.729 483.46 245.939 483.46 246.185C483.46 246.347 483.419 246.496 483.336 246.632C483.256 246.768 483.149 246.877 483.013 246.96C482.88 247.04 482.731 247.08 482.565 247.08Z" fill="black"/>
<line x1="505" y1="200.5" x2="571" y2="200.5" stroke="black"/>
<line x1="505" y1="208.5" x2="571" y2="208.5" stroke="black"/>
<line x1="505" y1="226.5" x2="560" y2="226.5" stroke="black"/>
<circle cx="252.5" cy="416.5" r="15" stroke="black"/>
<circle cx="322.5" cy="416.5" r="15" stroke="black"/>
<circle cx="392.5" cy="416.5" r="15" stroke="black"/>
<circle cx="462.5" cy="416.5" r="15" stroke="black"/>
<path d="M454.734 362.586L451.141 370.49C450.754 371.341 449.515 371.243 449.267 370.342L442.733 346.657C442.484 345.756 443.498 345.037 444.266 345.569L465.368 360.178C466.174 360.736 465.779 362 464.799 362H455.644C455.252 362 454.896 362.229 454.734 362.586Z" fill="black" stroke="black"/>
<path d="M398.03 56C398.03 56 396.03 29.5 424.53 29.5M424.53 29.5L418.53 24M424.53 29.5L418.53 36" stroke="black"/>
<path d="M473.265 319.235C473.265 319.235 499.765 321.235 499.765 292.735M499.765 292.735L505.265 298.735M499.765 292.735L493.265 298.735" stroke="black"/>
</svg>
