<svg width="716" height="441" viewBox="0 0 716 441" fill="none" xmlns="http://www.w3.org/2000/svg">
<rect width="716" height="441" fill="white"/>
<rect x="23.5" y="32.5" width="287" height="340" rx="4.5" stroke="black"/>
<line x1="60" y1="75.5" x2="106" y2="75.5" stroke="black"/>
<line x1="60" y1="90.5" x2="106" y2="90.5" stroke="black"/>
<line x1="60" y1="121.5" x2="252" y2="121.5" stroke="black"/>
<line x1="60" y1="139.5" x2="252" y2="139.5" stroke="black"/>
<line x1="60" y1="156.5" x2="252" y2="156.5" stroke="black"/>
<line x1="60" y1="172.5" x2="252" y2="172.5" stroke="black"/>
<rect x="142.5" y="68.5" width="435" height="289" rx="4.5" fill="white" stroke="black"/>
<path d="M542.972 326.859C543.242 326.803 543.416 326.538 543.359 326.268L542.442 321.862C542.385 321.592 542.121 321.418 541.85 321.475C541.58 321.531 541.406 321.796 541.463 322.066L542.278 325.982L538.362 326.798C538.092 326.854 537.918 327.119 537.975 327.389C538.031 327.659 538.296 327.833 538.566 327.777L542.972 326.859ZM523.719 314.418L542.596 326.788L543.144 325.951L524.267 313.582L523.719 314.418Z" fill="black"/>
<rect x="543.5" y="326.5" width="19" height="14" rx="4.5" fill="white" stroke="black"/>
<rect x="521.5" y="311.5" width="44" height="32" rx="4.5" stroke="black"/>
<line x1="-4.37114e-08" y1="391.5" x2="716" y2="391.5" stroke="black"/>
<path d="M310.5 212.41V208.7H330.73V212.41H310.5ZM337.707 212.41V208.7H357.937V212.41H337.707ZM365.614 229V222.63H371.144V229H365.614ZM365.614 200.58V194.21H371.144V200.58H365.614ZM378.859 212.41V208.7H399.089V212.41H378.859ZM406.066 212.41V208.7H426.296V212.41H406.066Z" fill="black"/>
<circle cx="252.5" cy="416.5" r="15" stroke="black"/>
<circle cx="322.5" cy="416.5" r="15" stroke="black"/>
<circle cx="392.5" cy="416.5" r="15" stroke="black"/>
<circle cx="462.5" cy="416.5" r="15" stroke="black"/>
<path d="M566.734 353.586L563.141 361.49C562.754 362.341 561.515 362.243 561.267 361.342L554.733 337.657C554.484 336.756 555.498 336.037 556.266 336.569L577.368 351.178C578.174 351.736 577.779 353 576.799 353H567.644C567.252 353 566.896 353.229 566.734 353.586Z" fill="black" stroke="black"/>
<path d="M399.03 56C399.03 56 397.03 29.5 425.53 29.5M425.53 29.5L419.53 24M425.53 29.5L419.53 36" stroke="black"/>
<path d="M594 241.5C594 241.5 620.5 243.5 620.5 215M620.5 215L626 221M620.5 215L614 221" stroke="black"/>
<path d="M443 28C443 25.2386 445.239 23 448 23H687C689.761 23 692 25.2386 692 28V199C692 201.761 689.761 204 687 204H448C445.239 204 443 201.761 443 199V28Z" fill="white"/>
<path fill-rule="evenodd" clip-rule="evenodd" d="M687 24H448C445.791 24 444 25.7909 444 28V199C444 201.209 445.791 203 448 203H687C689.209 203 691 201.209 691 199V28C691 25.7909 689.209 24 687 24ZM448 23C445.239 23 443 25.2386 443 28V199C443 201.761 445.239 204 448 204H687C689.761 204 692 201.761 692 199V28C692 25.2386 689.761 23 687 23H448Z" fill="black"/>
<path fill-rule="evenodd" clip-rule="evenodd" d="M659.537 38.1911L668.315 46.4424L668.999 45.7138L660.222 37.4625L663.513 37.3608C663.789 37.3523 664.006 37.1216 663.998 36.8456C663.989 36.5696 663.758 36.3528 663.482 36.3613L658.985 36.5003C658.709 36.5088 658.492 36.7395 658.5 37.0155L658.639 41.5133C658.648 41.7893 658.878 42.0062 659.154 41.9976C659.43 41.9891 659.647 41.7585 659.639 41.4824L659.537 38.1911Z" fill="black"/>
<path fill-rule="evenodd" clip-rule="evenodd" d="M679 33H659C656.791 33 655 34.7909 655 37V49C655 51.2091 656.791 53 659 53H679C681.209 53 683 51.2091 683 49V37C683 34.7909 681.209 33 679 33ZM659 32C656.239 32 654 34.2386 654 37V49C654 51.7614 656.239 54 659 54H679C681.761 54 684 51.7614 684 49V37C684 34.2386 681.761 32 679 32H659Z" fill="black"/>
<path d="M669 51C669 48.2386 671.239 46 674 46H683C685.761 46 688 48.2386 688 51V54C688 56.7614 685.761 59 683 59H674C671.239 59 669 56.7614 669 54V51Z" fill="white"/>
<path fill-rule="evenodd" clip-rule="evenodd" d="M683 47H674C671.791 47 670 48.7909 670 51V54C670 56.2091 671.791 58 674 58H683C685.209 58 687 56.2091 687 54V51C687 48.7909 685.209 47 683 47ZM674 46C671.239 46 669 48.2386 669 51V54C669 56.7614 671.239 59 674 59H683C685.761 59 688 56.7614 688 54V51C688 48.2386 685.761 46 683 46H674Z" fill="black"/>
<path fill-rule="evenodd" clip-rule="evenodd" d="M463.743 36.2565L454.257 45.7434L453.549 45.0363L463.036 35.5494L463.743 36.2565Z" fill="black"/>
<path fill-rule="evenodd" clip-rule="evenodd" d="M463.743 45.7434L454.257 36.2565L454.964 35.5494L464.451 45.0363L463.743 45.7434Z" fill="black"/>
<path d="M559 154C559 152.343 560.343 151 562 151C563.657 151 565 152.343 565 154V170C565 171.657 563.657 173 562 173C560.343 173 559 171.657 559 170V154Z" fill="white"/>
<path fill-rule="evenodd" clip-rule="evenodd" d="M564 170V154C564 152.895 563.105 152 562 152C560.895 152 560 152.895 560 154V170C560 171.105 560.895 172 562 172C563.105 172 564 171.105 564 170ZM562 151C560.343 151 559 152.343 559 154V170C559 171.657 560.343 173 562 173C563.657 173 565 171.657 565 170V154C565 152.343 563.657 151 562 151Z" fill="black"/>
<path d="M570 154C570 152.343 571.343 151 573 151C574.657 151 576 152.343 576 154V170C576 171.657 574.657 173 573 173C571.343 173 570 171.657 570 170V154Z" fill="white"/>
<path fill-rule="evenodd" clip-rule="evenodd" d="M575 170V154C575 152.895 574.105 152 573 152C571.895 152 571 152.895 571 154V170C571 171.105 571.895 172 573 172C574.105 172 575 171.105 575 170ZM573 151C571.343 151 570 152.343 570 154V170C570 171.657 571.343 173 573 173C574.657 173 576 171.657 576 170V154C576 152.343 574.657 151 573 151Z" fill="black"/>
<path d="M559.929 191.08C559.684 191.08 559.473 190.992 559.298 190.816C559.122 190.64 559.034 190.43 559.034 190.185C559.034 189.939 559.122 189.729 559.298 189.553C559.473 189.378 559.684 189.29 559.929 189.29C560.174 189.29 560.385 189.378 560.56 189.553C560.736 189.729 560.824 189.939 560.824 190.185C560.824 190.347 560.782 190.496 560.7 190.632C560.62 190.768 560.512 190.877 560.376 190.96C560.244 191.04 560.095 191.08 559.929 191.08Z" fill="black"/>
<path d="M567.722 191.08C567.477 191.08 567.266 190.992 567.091 190.816C566.915 190.64 566.827 190.43 566.827 190.185C566.827 189.939 566.915 189.729 567.091 189.553C567.266 189.378 567.477 189.29 567.722 189.29C567.967 189.29 568.178 189.378 568.353 189.553C568.529 189.729 568.617 189.939 568.617 190.185C568.617 190.347 568.575 190.496 568.493 190.632C568.413 190.768 568.305 190.877 568.169 190.96C568.037 191.04 567.888 191.08 567.722 191.08Z" fill="black"/>
<path d="M575.515 191.08C575.27 191.08 575.059 190.992 574.884 190.816C574.708 190.64 574.62 190.43 574.62 190.185C574.62 189.939 574.708 189.729 574.884 189.553C575.059 189.378 575.27 189.29 575.515 189.29C575.76 189.29 575.971 189.378 576.146 189.553C576.322 189.729 576.41 189.939 576.41 190.185C576.41 190.347 576.368 190.496 576.286 190.632C576.206 190.768 576.098 190.877 575.962 190.96C575.83 191.04 575.681 191.08 575.515 191.08Z" fill="black"/>
<path fill-rule="evenodd" clip-rule="evenodd" d="M692 141H444V140H692V141Z" fill="black"/>
<path fill-rule="evenodd" clip-rule="evenodd" d="M531.5 172C536.747 172 541 167.747 541 162.5C541 157.253 536.747 153 531.5 153C526.253 153 522 157.253 522 162.5C522 167.747 526.253 172 531.5 172ZM531.5 173C537.299 173 542 168.299 542 162.5C542 156.701 537.299 152 531.5 152C525.701 152 521 156.701 521 162.5C521 168.299 525.701 173 531.5 173Z" fill="black"/>
<rect x="539" y="159" width="4" height="6" fill="white"/>
<path d="M541.559 153L541.465 157.8C541.452 158.496 540.749 158.966 540.101 158.712L535.592 156.946" stroke="black"/>
<path d="M590.8 162.584V167.384H589.456V162.584H584.848V161.36H589.456V156.56H590.8V161.36H595.408V162.584H590.8ZM601.762 155.048L601.234 160.808C601.602 160.504 602.074 160.264 602.65 160.088C603.226 159.896 603.842 159.8 604.498 159.8C606.082 159.8 607.322 160.24 608.218 161.12C609.13 162 609.586 163.224 609.586 164.792C609.586 165.624 609.45 166.384 609.178 167.072C608.922 167.744 608.546 168.32 608.05 168.8C607.554 169.28 606.954 169.656 606.25 169.928C605.546 170.184 604.754 170.312 603.874 170.312C602.866 170.312 601.946 170.152 601.114 169.832C600.298 169.512 599.57 169.064 598.93 168.488L599.722 167.408C600.282 167.872 600.89 168.248 601.546 168.536C602.218 168.824 602.962 168.968 603.778 168.968C605.106 168.968 606.154 168.608 606.922 167.888C607.706 167.152 608.098 166.136 608.098 164.84C608.098 163.64 607.754 162.728 607.066 162.104C606.394 161.464 605.474 161.144 604.306 161.144C603.586 161.144 602.938 161.248 602.362 161.456C601.802 161.664 601.29 161.968 600.826 162.368L599.794 161.864L600.514 153.752H608.626V155.048H601.762Z" fill="black"/>
<path d="M548.2 94.312V93.04H555.136V94.312H548.2ZM557.528 94.312V93.04H564.464V94.312H557.528ZM567.096 100V97.816H568.992V100H567.096ZM567.096 90.256V88.072H568.992V90.256H567.096ZM571.638 94.312V93.04H578.574V94.312H571.638ZM580.966 94.312V93.04H587.902V94.312H580.966Z" fill="black"/>
</svg>
