<svg width="716" height="441" viewBox="0 0 716 441" fill="none" xmlns="http://www.w3.org/2000/svg">
<rect width="716" height="441" fill="white"/>
<rect x="24.5" y="68.5" width="458" height="289" rx="4.5" stroke="black"/>
<path d="M414.972 89.8591C415.242 89.8028 415.416 89.538 415.359 89.2677L414.442 84.8622C414.385 84.5919 414.121 84.4184 413.85 84.4747C413.58 84.531 413.406 84.7957 413.463 85.0661L414.278 88.9821L410.362 89.7976C410.092 89.8539 409.918 90.1187 409.975 90.389C410.031 90.6594 410.296 90.8329 410.566 90.7766L414.972 89.8591ZM395.719 77.4182L414.596 89.7878L415.144 88.9514L396.267 76.5818L395.719 77.4182Z" fill="black"/>
<rect x="415.5" y="89.5" width="19" height="14" rx="4.5" fill="white" stroke="black"/>
<rect x="393.5" y="74.5" width="44" height="32" rx="4.5" stroke="black"/>
<line x1="-4.37114e-08" y1="391.5" x2="716" y2="391.5" stroke="black"/>
<line x1="25" y1="111.5" x2="460" y2="111.5" stroke="black"/>
<rect x="368.5" y="136.5" width="89" height="23" rx="4.5" fill="white" stroke="black"/>
<rect x="368.5" y="164.5" width="76" height="10" rx="4.5" fill="white" stroke="black"/>
<rect x="392.5" y="328.5" width="79" height="12" rx="4.5" fill="white" stroke="black"/>
<path d="M373.933 343.25C373.741 343.583 373.259 343.583 373.067 343.25L370.902 339.5C370.709 339.167 370.95 338.75 371.335 338.75H375.665C376.05 338.75 376.291 339.167 376.098 339.5L373.933 343.25Z" fill="white" stroke="black"/>
<rect x="367.5" y="328.5" width="18" height="12" rx="4.5" fill="white" stroke="black"/>
<path d="M374.366 341.5C373.981 342.167 373.019 342.167 372.634 341.5L370.469 337.75C370.084 337.083 370.565 336.25 371.335 336.25H375.665C376.435 336.25 376.916 337.083 376.531 337.75L374.366 341.5Z" fill="white"/>
<path d="M372.929 335.08C372.684 335.08 372.473 334.992 372.298 334.816C372.122 334.64 372.034 334.43 372.034 334.185C372.034 333.939 372.122 333.729 372.298 333.553C372.473 333.378 372.684 333.29 372.929 333.29C373.174 333.29 373.385 333.378 373.56 333.553C373.736 333.729 373.824 333.939 373.824 334.185C373.824 334.347 373.782 334.496 373.7 334.632C373.62 334.768 373.512 334.877 373.376 334.96C373.244 335.04 373.095 335.08 372.929 335.08ZM376.747 335.08C376.502 335.08 376.291 334.992 376.116 334.816C375.94 334.64 375.852 334.43 375.852 334.185C375.852 333.939 375.94 333.729 376.116 333.553C376.291 333.378 376.502 333.29 376.747 333.29C376.992 333.29 377.203 333.378 377.379 333.553C377.554 333.729 377.642 333.939 377.642 334.185C377.642 334.347 377.601 334.496 377.518 334.632C377.438 334.768 377.33 334.877 377.195 334.96C377.062 335.04 376.913 335.08 376.747 335.08ZM380.565 335.08C380.32 335.08 380.11 334.992 379.934 334.816C379.758 334.64 379.67 334.43 379.67 334.185C379.67 333.939 379.758 333.729 379.934 333.553C380.11 333.378 380.32 333.29 380.565 333.29C380.811 333.29 381.021 333.378 381.197 333.553C381.372 333.729 381.46 333.939 381.46 334.185C381.46 334.347 381.419 334.496 381.336 334.632C381.256 334.768 381.149 334.877 381.013 334.96C380.88 335.04 380.731 335.08 380.565 335.08Z" fill="black"/>
<line x1="379" y1="143.5" x2="445" y2="143.5" stroke="black"/>
<line x1="379" y1="151.5" x2="445" y2="151.5" stroke="black"/>
<line x1="380" y1="169.5" x2="436" y2="169.5" stroke="black"/>
<circle cx="252.5" cy="416.5" r="15" stroke="black"/>
<circle cx="322.5" cy="416.5" r="15" stroke="black"/>
<circle cx="392.5" cy="416.5" r="15" stroke="black"/>
<circle cx="462.5" cy="416.5" r="15" stroke="black"/>
<path d="M424.734 117.586L421.141 125.49C420.754 126.341 419.515 126.243 419.267 125.342L412.733 101.657C412.484 100.756 413.498 100.037 414.266 100.569L435.368 115.178C436.174 115.736 435.779 117 434.799 117H425.644C425.252 117 424.896 117.229 424.734 117.586Z" fill="black" stroke="black"/>
<path d="M398.03 56C398.03 56 396.03 29.5 424.53 29.5M424.53 29.5L418.53 24M424.53 29.5L418.53 36" stroke="black"/>
<path d="M488 239.5C488 239.5 514.5 241.5 514.5 213M514.5 213L520 219M514.5 213L508 219" stroke="black"/>
<rect x="444.5" y="24.5" width="248" height="180" rx="4.5" fill="white" stroke="black"/>
<path d="M659.5 38.0155C659.492 37.7395 659.709 37.5088 659.985 37.5003L664.482 37.3613C664.758 37.3528 664.989 37.5696 664.998 37.8456C665.006 38.1216 664.789 38.3523 664.513 38.3608L660.515 38.4844L660.639 42.4824C660.647 42.7585 660.43 42.9891 660.154 42.9976C659.878 43.0062 659.648 42.7893 659.639 42.5133L659.5 38.0155ZM669.314 47.4424L659.658 38.3643L660.342 37.6357L669.999 46.7138L669.314 47.4424Z" fill="black"/>
<rect x="655.5" y="33.5" width="29" height="21" rx="4.5" stroke="black"/>
<rect x="670.5" y="47.5" width="18" height="12" rx="4.5" fill="white" stroke="black"/>
<line x1="454.903" y1="46.3899" x2="464.39" y2="36.903" stroke="black"/>
<line x1="455.61" y1="36.903" x2="465.097" y2="46.3899" stroke="black"/>
<path d="M560.929 192.08C560.684 192.08 560.473 191.992 560.298 191.816C560.122 191.64 560.034 191.43 560.034 191.185C560.034 190.939 560.122 190.729 560.298 190.553C560.473 190.378 560.684 190.29 560.929 190.29C561.174 190.29 561.385 190.378 561.56 190.553C561.736 190.729 561.824 190.939 561.824 191.185C561.824 191.347 561.782 191.496 561.7 191.632C561.62 191.768 561.512 191.877 561.376 191.96C561.244 192.04 561.095 192.08 560.929 192.08ZM568.722 192.08C568.477 192.08 568.266 191.992 568.091 191.816C567.915 191.64 567.827 191.43 567.827 191.185C567.827 190.939 567.915 190.729 568.091 190.553C568.266 190.378 568.477 190.29 568.722 190.29C568.967 190.29 569.178 190.378 569.353 190.553C569.529 190.729 569.617 190.939 569.617 191.185C569.617 191.347 569.575 191.496 569.493 191.632C569.413 191.768 569.305 191.877 569.169 191.96C569.037 192.04 568.888 192.08 568.722 192.08ZM576.515 192.08C576.27 192.08 576.059 191.992 575.884 191.816C575.708 191.64 575.62 191.43 575.62 191.185C575.62 190.939 575.708 190.729 575.884 190.553C576.059 190.378 576.27 190.29 576.515 190.29C576.76 190.29 576.971 190.378 577.146 190.553C577.322 190.729 577.41 190.939 577.41 191.185C577.41 191.347 577.368 191.496 577.286 191.632C577.206 191.768 577.098 191.877 576.962 191.96C576.83 192.04 576.681 192.08 576.515 192.08Z" fill="black"/>
<line x1="445" y1="179.5" x2="693" y2="179.5" stroke="black"/>
<line x1="569.5" y1="24" x2="569.5" y2="180" stroke="black"/>
<rect x="504.5" y="147.5" width="128" height="20" rx="4.5" fill="white" stroke="black"/>
<line x1="521" y1="156.5" x2="536" y2="156.5" stroke="black"/>
<line x1="544" y1="156.5" x2="565" y2="156.5" stroke="black"/>
<line x1="572" y1="156.5" x2="579" y2="156.5" stroke="black"/>
<path d="M589 156.5H603" stroke="black"/>
<line x1="612" y1="156.5" x2="619" y2="156.5" stroke="black"/>
<path d="M635 38.3077V35C635 34.4477 634.552 34 634 34H620C619.448 34 619 34.4477 619 35V47C619 47.5523 619.448 48 620 48H634C634.552 48 635 47.5523 635 47V43.1538M635 38.3077L638.347 35.4239C638.995 34.8655 640 35.3259 640 36.1815V45.6381C640 46.5215 638.938 46.971 638.304 46.3562L635 43.1538M635 38.3077V43.1538" stroke="black"/>
<path d="M591 50C591.483 47.6667 592.138 46.7036 594.5 46.058M594.5 46.058L597.389 44.8377C597.759 44.6813 598 44.3209 598 43.919C598 42.2071 598 37.596 598 35.2174C598 32.2609 591 32.2609 591 35.2174C591 37.596 591 42.2071 591 43.919C591 44.3209 591.241 44.6813 591.611 44.8377L594.5 46.058ZM594.5 46.058C596.879 46.4254 597.521 47.4326 598 50" stroke="black"/>
<path d="M495.449 41.0881V42.1818H490.994V41.0881H495.449ZM501.888 41.0881V42.1818H497.434V41.0881H501.888ZM504.808 46.0795C504.563 46.0795 504.352 45.9917 504.176 45.8161C504.001 45.6404 503.913 45.4299 503.913 45.1847C503.913 44.9394 504.001 44.7289 504.176 44.5533C504.352 44.3776 504.563 44.2898 504.808 44.2898C505.053 44.2898 505.264 44.3776 505.439 44.5533C505.615 44.7289 505.703 44.9394 505.703 45.1847C505.703 45.3471 505.661 45.4962 505.578 45.6321C505.499 45.768 505.391 45.8774 505.255 45.9602C505.123 46.0398 504.974 46.0795 504.808 46.0795ZM504.808 40.4119C504.563 40.4119 504.352 40.3241 504.176 40.1484C504.001 39.9728 503.913 39.7623 503.913 39.517C503.913 39.2718 504.001 39.0613 504.176 38.8857C504.352 38.71 504.563 38.6222 504.808 38.6222C505.053 38.6222 505.264 38.71 505.439 38.8857C505.615 39.0613 505.703 39.2718 505.703 39.517C505.703 39.6795 505.661 39.8286 505.578 39.9645C505.499 40.1004 505.391 40.2098 505.255 40.2926C505.123 40.3722 504.974 40.4119 504.808 40.4119ZM512.183 41.0881V42.1818H507.729V41.0881H512.183ZM518.623 41.0881V42.1818H514.168V41.0881H518.623Z" fill="black"/>
<path d="M51.4489 90.0881V91.1818H46.9943V90.0881H51.4489ZM57.8883 90.0881V91.1818H53.4338V90.0881H57.8883ZM60.8079 95.0795C60.5626 95.0795 60.3522 94.9917 60.1765 94.8161C60.0008 94.6404 59.913 94.4299 59.913 94.1847C59.913 93.9394 60.0008 93.7289 60.1765 93.5533C60.3522 93.3776 60.5626 93.2898 60.8079 93.2898C61.0531 93.2898 61.2636 93.3776 61.4393 93.5533C61.6149 93.7289 61.7028 93.9394 61.7028 94.1847C61.7028 94.3471 61.6613 94.4962 61.5785 94.6321C61.4989 94.768 61.3912 94.8774 61.2553 94.9602C61.1228 95.0398 60.9736 95.0795 60.8079 95.0795ZM60.8079 89.4119C60.5626 89.4119 60.3522 89.3241 60.1765 89.1484C60.0008 88.9728 59.913 88.7623 59.913 88.517C59.913 88.2718 60.0008 88.0613 60.1765 87.8857C60.3522 87.71 60.5626 87.6222 60.8079 87.6222C61.0531 87.6222 61.2636 87.71 61.4393 87.8857C61.6149 88.0613 61.7028 88.2718 61.7028 88.517C61.7028 88.6795 61.6613 88.8286 61.5785 88.9645C61.4989 89.1004 61.3912 89.2098 61.2553 89.2926C61.1228 89.3722 60.9736 89.4119 60.8079 89.4119ZM68.1832 90.0881V91.1818H63.7287V90.0881H68.1832ZM74.6227 90.0881V91.1818H70.1681V90.0881H74.6227Z" fill="black"/>
<line x1="179.5" y1="112" x2="179.5" y2="357" stroke="black"/>
<line x1="25" y1="238.5" x2="179" y2="238.5" stroke="black"/>
<circle cx="89.5" cy="90.5" r="2.5" fill="black"/>
<circle cx="89.5" cy="90.5" r="2.5" fill="black"/>
<circle cx="89.5" cy="90.5" r="4" stroke="black"/>
<rect x="87.5" y="321.5" width="214" height="22" rx="4.5" fill="white" stroke="black"/>
<line x1="104" y1="332.5" x2="284" y2="332.5" stroke="black"/>
<line x1="355.5" y1="357" x2="355.5" y2="112" stroke="black"/>
<path d="M359.571 87.2308V83C359.571 82.4477 359.124 82 358.571 82H340C339.448 82 339 82.4477 339 83V98C339 98.5523 339.448 99 340 99H358.571C359.124 99 359.571 98.5523 359.571 98V93.1154M359.571 87.2308L364.369 83.3272C365.022 82.7956 366 83.2605 366 84.1029V96.7289C366 97.5987 364.966 98.0538 364.325 97.4665L359.571 93.1154M359.571 87.2308V93.1154" stroke="black"/>
<path d="M303 102C303.621 98.9805 304.463 97.7341 307.5 96.8986M307.5 96.8986L311.391 95.2443C311.76 95.0874 312 94.7295 312 94.3284C312 92.2939 312 86.0447 312 82.8696C312 79.0435 303 79.0435 303 82.8696C303 86.0447 303 92.2939 303 94.3284C303 94.7295 303.24 95.0874 303.609 95.2443L307.5 96.8986ZM307.5 96.8986C310.559 97.3741 311.384 98.6775 312 102" stroke="black"/>
</svg>
