<svg width="716" height="441" viewBox="0 0 716 441" fill="none" xmlns="http://www.w3.org/2000/svg">
<rect width="716" height="441" fill="white"/>
<rect x="24.5" y="68.5" width="458" height="289" rx="4.5" stroke="black"/>
<path d="M414.972 89.8591C415.242 89.8028 415.416 89.538 415.359 89.2677L414.442 84.8622C414.385 84.5919 414.121 84.4184 413.85 84.4747C413.58 84.531 413.406 84.7957 413.463 85.0661L414.278 88.9821L410.362 89.7976C410.092 89.8539 409.918 90.1187 409.975 90.389C410.031 90.6594 410.296 90.8329 410.566 90.7766L414.972 89.8591ZM395.719 77.4182L414.596 89.7878L415.144 88.9514L396.267 76.5818L395.719 77.4182Z" fill="black"/>
<rect x="415.5" y="89.5" width="19" height="14" rx="4.5" fill="white" stroke="black"/>
<rect x="393.5" y="74.5" width="44" height="32" rx="4.5" stroke="black"/>
<line x1="-4.37114e-08" y1="391.5" x2="716" y2="391.5" stroke="black"/>
<line x1="25" y1="111.5" x2="460" y2="111.5" stroke="black"/>
<rect x="368.5" y="136.5" width="89" height="23" rx="4.5" fill="white" stroke="black"/>
<rect x="368.5" y="164.5" width="76" height="10" rx="4.5" fill="white" stroke="black"/>
<rect x="392.5" y="328.5" width="79" height="12" rx="4.5" fill="white" stroke="black"/>
<path d="M373.933 343.25C373.741 343.583 373.259 343.583 373.067 343.25L370.902 339.5C370.709 339.167 370.95 338.75 371.335 338.75H375.665C376.05 338.75 376.291 339.167 376.098 339.5L373.933 343.25Z" fill="white" stroke="black"/>
<rect x="367.5" y="328.5" width="18" height="12" rx="4.5" fill="white" stroke="black"/>
<path d="M374.366 341.5C373.981 342.167 373.019 342.167 372.634 341.5L370.469 337.75C370.084 337.083 370.565 336.25 371.335 336.25H375.665C376.435 336.25 376.916 337.083 376.531 337.75L374.366 341.5Z" fill="white"/>
<path d="M372.929 335.08C372.684 335.08 372.473 334.992 372.298 334.816C372.122 334.64 372.034 334.43 372.034 334.185C372.034 333.939 372.122 333.729 372.298 333.553C372.473 333.378 372.684 333.29 372.929 333.29C373.174 333.29 373.385 333.378 373.56 333.553C373.736 333.729 373.824 333.939 373.824 334.185C373.824 334.347 373.782 334.496 373.7 334.632C373.62 334.768 373.512 334.877 373.376 334.96C373.244 335.04 373.095 335.08 372.929 335.08ZM376.747 335.08C376.502 335.08 376.291 334.992 376.116 334.816C375.94 334.64 375.852 334.43 375.852 334.185C375.852 333.939 375.94 333.729 376.116 333.553C376.291 333.378 376.502 333.29 376.747 333.29C376.992 333.29 377.203 333.378 377.379 333.553C377.554 333.729 377.642 333.939 377.642 334.185C377.642 334.347 377.601 334.496 377.518 334.632C377.438 334.768 377.33 334.877 377.195 334.96C377.062 335.04 376.913 335.08 376.747 335.08ZM380.565 335.08C380.32 335.08 380.11 334.992 379.934 334.816C379.758 334.64 379.67 334.43 379.67 334.185C379.67 333.939 379.758 333.729 379.934 333.553C380.11 333.378 380.32 333.29 380.565 333.29C380.811 333.29 381.021 333.378 381.197 333.553C381.372 333.729 381.46 333.939 381.46 334.185C381.46 334.347 381.419 334.496 381.336 334.632C381.256 334.768 381.149 334.877 381.013 334.96C380.88 335.04 380.731 335.08 380.565 335.08Z" fill="black"/>
<line x1="379" y1="143.5" x2="445" y2="143.5" stroke="black"/>
<line x1="379" y1="151.5" x2="445" y2="151.5" stroke="black"/>
<line x1="380" y1="169.5" x2="436" y2="169.5" stroke="black"/>
<circle cx="252.5" cy="416.5" r="15" stroke="black"/>
<circle cx="322.5" cy="416.5" r="15" stroke="black"/>
<circle cx="392.5" cy="416.5" r="15" stroke="black"/>
<circle cx="462.5" cy="416.5" r="15" stroke="black"/>
<path d="M424.734 117.586L421.141 125.49C420.754 126.341 419.515 126.243 419.267 125.342L412.733 101.657C412.484 100.756 413.498 100.037 414.266 100.569L435.368 115.178C436.174 115.736 435.779 117 434.799 117H425.644C425.252 117 424.896 117.229 424.734 117.586Z" fill="black" stroke="black"/>
<path d="M398.03 56C398.03 56 396.03 29.5 424.53 29.5M424.53 29.5L418.53 24M424.53 29.5L418.53 36" stroke="black"/>
<path d="M498 330.5C498 330.5 524.5 332.5 524.5 304M524.5 304L530 310M524.5 304L518 310" stroke="black"/>
<rect x="444.5" y="24.5" width="248" height="262" rx="4.5" fill="white" stroke="black"/>
<path d="M659.5 37.9397C659.491 37.6639 659.708 37.4328 659.984 37.4234L664.486 37.2704C664.762 37.261 664.993 37.477 665.002 37.7527C665.01 38.0285 664.793 38.2596 664.517 38.269L660.516 38.405L660.642 42.3995C660.651 42.6753 660.434 42.9064 660.158 42.9158C659.881 42.9252 659.651 42.7092 659.642 42.4335L659.5 37.9397ZM669.314 47.3157L659.658 38.2878L660.343 37.5576L669.999 46.5855L669.314 47.3157Z" fill="black"/>
<rect x="655.5" y="33.4503" width="29" height="20.8785" rx="4.5" stroke="black"/>
<rect x="670.5" y="47.3729" width="18" height="11.9282" rx="4.5" fill="white" stroke="black"/>
<line y1="-0.5" x2="13.3794" y2="-0.5" transform="matrix(0.709063 -0.705145 0.709063 0.705145 455.257 46.6177)" stroke="black"/>
<line y1="-0.5" x2="13.3794" y2="-0.5" transform="matrix(0.709063 0.705145 -0.709063 0.705145 455.257 37.1833)" stroke="black"/>
<line x1="445" y1="178.638" x2="693" y2="178.638" stroke="black"/>
<line x1="569.5" y1="24" x2="569.5" y2="179.138" stroke="black"/>
<rect x="504.5" y="146.82" width="128" height="19.884" rx="4.5" fill="white" stroke="black"/>
<line x1="521" y1="155.765" x2="536" y2="155.765" stroke="black"/>
<line x1="544" y1="155.765" x2="565" y2="155.765" stroke="black"/>
<line x1="572" y1="155.765" x2="579" y2="155.765" stroke="black"/>
<path d="M589 155.768H603" stroke="black"/>
<line x1="612" y1="155.765" x2="619" y2="155.765" stroke="black"/>
<path d="M635 38.2287V34.9448C635 34.3925 634.552 33.9448 634 33.9448H620C619.448 33.9448 619 34.3925 619 34.9448V46.8674C619 47.4197 619.448 47.8674 620 47.8674H634C634.552 47.8674 635 47.4197 635 46.8674V43.048M635 38.2287L638.349 35.359C638.998 34.8032 640 35.2641 640 36.1184V45.5146C640 46.3967 638.941 46.8468 638.306 46.2346L635 43.048M635 38.2287V43.048" stroke="black"/>
<path d="M591 49.8563C591.483 47.536 592.138 46.5782 594.5 45.9361M594.5 45.9361L597.387 44.7234C597.758 44.5674 598 44.2066 598 43.804C598 42.0977 598 37.5186 598 35.1554C598 32.2152 591 32.2152 591 35.1554C591 37.5186 591 42.0977 591 43.804C591 44.2066 591.242 44.5674 591.613 44.7234L594.5 45.9361ZM594.5 45.9361C596.879 46.3015 597.521 47.3031 598 49.8563" stroke="black"/>
<path d="M495.449 41.0439V42.1376H490.994V41.0439H495.449ZM501.888 41.0439V42.1376H497.434V41.0439H501.888ZM504.808 46.0354C504.563 46.0354 504.352 45.9475 504.176 45.7719C504.001 45.5962 503.913 45.3857 503.913 45.1405C503.913 44.8952 504.001 44.6847 504.176 44.5091C504.352 44.3334 504.563 44.2456 504.808 44.2456C505.053 44.2456 505.264 44.3334 505.439 44.5091C505.615 44.6847 505.703 44.8952 505.703 45.1405C505.703 45.3029 505.661 45.452 505.578 45.5879C505.499 45.7238 505.391 45.8332 505.255 45.916C505.123 45.9956 504.974 46.0354 504.808 46.0354ZM504.808 40.3677C504.563 40.3677 504.352 40.2799 504.176 40.1042C504.001 39.9286 503.913 39.7181 503.913 39.4729C503.913 39.2276 504.001 39.0171 504.176 38.8415C504.352 38.6658 504.563 38.578 504.808 38.578C505.053 38.578 505.264 38.6658 505.439 38.8415C505.615 39.0171 505.703 39.2276 505.703 39.4729C505.703 39.6353 505.661 39.7844 505.578 39.9203C505.499 40.0562 505.391 40.1656 505.255 40.2484C505.123 40.328 504.974 40.3677 504.808 40.3677ZM512.183 41.0439V42.1376H507.729V41.0439H512.183ZM518.623 41.0439V42.1376H514.168V41.0439H518.623Z" fill="black"/>
<line x1="564.646" y1="276.374" x2="570.614" y2="270.406" stroke="black"/>
<line x1="570.386" y1="270.406" x2="576.354" y2="276.374" stroke="black"/>
<rect x="497.5" y="197.5" width="89" height="23" rx="4.5" fill="white" stroke="black"/>
<rect x="497.5" y="225.5" width="76" height="10" rx="4.5" fill="white" stroke="black"/>
<rect x="497.5" y="244.5" width="166" height="12" rx="4.5" fill="white" stroke="black"/>
<path d="M478.933 259.25C478.741 259.583 478.259 259.583 478.067 259.25L475.902 255.5C475.709 255.167 475.95 254.75 476.335 254.75H480.665C481.05 254.75 481.291 255.167 481.098 255.5L478.933 259.25Z" fill="white" stroke="black"/>
<rect x="472.5" y="244.5" width="18" height="12" rx="4.5" fill="white" stroke="black"/>
<path d="M479.366 257.5C478.981 258.167 478.019 258.167 477.634 257.5L475.469 253.75C475.084 253.083 475.565 252.25 476.335 252.25H480.665C481.435 252.25 481.916 253.083 481.531 253.75L479.366 257.5Z" fill="white"/>
<path d="M477.929 251.08C477.684 251.08 477.473 250.992 477.298 250.816C477.122 250.64 477.034 250.43 477.034 250.185C477.034 249.939 477.122 249.729 477.298 249.553C477.473 249.378 477.684 249.29 477.929 249.29C478.174 249.29 478.385 249.378 478.56 249.553C478.736 249.729 478.824 249.939 478.824 250.185C478.824 250.347 478.782 250.496 478.7 250.632C478.62 250.768 478.512 250.877 478.376 250.96C478.244 251.04 478.095 251.08 477.929 251.08ZM481.747 251.08C481.502 251.08 481.291 250.992 481.116 250.816C480.94 250.64 480.852 250.43 480.852 250.185C480.852 249.939 480.94 249.729 481.116 249.553C481.291 249.378 481.502 249.29 481.747 249.29C481.992 249.29 482.203 249.378 482.379 249.553C482.554 249.729 482.642 249.939 482.642 250.185C482.642 250.347 482.601 250.496 482.518 250.632C482.438 250.768 482.33 250.877 482.195 250.96C482.062 251.04 481.913 251.08 481.747 251.08ZM485.565 251.08C485.32 251.08 485.11 250.992 484.934 250.816C484.758 250.64 484.67 250.43 484.67 250.185C484.67 249.939 484.758 249.729 484.934 249.553C485.11 249.378 485.32 249.29 485.565 249.29C485.811 249.29 486.021 249.378 486.197 249.553C486.372 249.729 486.46 249.939 486.46 250.185C486.46 250.347 486.419 250.496 486.336 250.632C486.256 250.768 486.149 250.877 486.013 250.96C485.88 251.04 485.731 251.08 485.565 251.08Z" fill="black"/>
<line x1="508" y1="204.5" x2="574" y2="204.5" stroke="black"/>
<line x1="508" y1="212.5" x2="574" y2="212.5" stroke="black"/>
<path d="M51.4489 90.0881V91.1818H46.9943V90.0881H51.4489ZM57.8883 90.0881V91.1818H53.4338V90.0881H57.8883ZM60.8079 95.0795C60.5626 95.0795 60.3522 94.9917 60.1765 94.8161C60.0008 94.6404 59.913 94.4299 59.913 94.1847C59.913 93.9394 60.0008 93.7289 60.1765 93.5533C60.3522 93.3776 60.5626 93.2898 60.8079 93.2898C61.0531 93.2898 61.2636 93.3776 61.4393 93.5533C61.6149 93.7289 61.7028 93.9394 61.7028 94.1847C61.7028 94.3471 61.6613 94.4962 61.5785 94.6321C61.4989 94.768 61.3912 94.8774 61.2553 94.9602C61.1228 95.0398 60.9736 95.0795 60.8079 95.0795ZM60.8079 89.4119C60.5626 89.4119 60.3522 89.3241 60.1765 89.1484C60.0008 88.9728 59.913 88.7623 59.913 88.517C59.913 88.2718 60.0008 88.0613 60.1765 87.8857C60.3522 87.71 60.5626 87.6222 60.8079 87.6222C61.0531 87.6222 61.2636 87.71 61.4393 87.8857C61.6149 88.0613 61.7028 88.2718 61.7028 88.517C61.7028 88.6795 61.6613 88.8286 61.5785 88.9645C61.4989 89.1004 61.3912 89.2098 61.2553 89.2926C61.1228 89.3722 60.9736 89.4119 60.8079 89.4119ZM68.1832 90.0881V91.1818H63.7287V90.0881H68.1832ZM74.6227 90.0881V91.1818H70.1681V90.0881H74.6227Z" fill="black"/>
<line x1="179.5" y1="112" x2="179.5" y2="357" stroke="black"/>
<line x1="25" y1="238.5" x2="179" y2="238.5" stroke="black"/>
<circle cx="89.5" cy="90.5" r="2.5" fill="black"/>
<circle cx="89.5" cy="90.5" r="2.5" fill="black"/>
<circle cx="89.5" cy="90.5" r="4" stroke="black"/>
<rect x="87.5" y="321.5" width="214" height="22" rx="4.5" fill="white" stroke="black"/>
<line x1="104" y1="332.5" x2="284" y2="332.5" stroke="black"/>
<line x1="355.5" y1="357" x2="355.5" y2="112" stroke="black"/>
<path d="M359.571 87.2308V83C359.571 82.4477 359.124 82 358.571 82H340C339.448 82 339 82.4477 339 83V98C339 98.5523 339.448 99 340 99H358.571C359.124 99 359.571 98.5523 359.571 98V93.1154M359.571 87.2308L364.369 83.3272C365.022 82.7956 366 83.2605 366 84.1029V96.7289C366 97.5987 364.966 98.0538 364.325 97.4665L359.571 93.1154M359.571 87.2308V93.1154" stroke="black"/>
<path d="M303 102C303.621 98.9805 304.463 97.7341 307.5 96.8986M307.5 96.8986L311.391 95.2443C311.76 95.0874 312 94.7295 312 94.3284C312 92.2939 312 86.0447 312 82.8696C312 79.0435 303 79.0435 303 82.8696C303 86.0447 303 92.2939 303 94.3284C303 94.7295 303.24 95.0874 303.609 95.2443L307.5 96.8986ZM307.5 96.8986C310.559 97.3741 311.384 98.6775 312 102" stroke="black"/>
<line x1="508" y1="230.5" x2="561" y2="230.5" stroke="black"/>
</svg>
